# xmcd
#
# Track frame offsets: 
#        150
#        13630
#        26648
#        40168
#        54319
#        74142
#        98733
#        116254
#        131191
#        147612
#        170357
#        182591
#        192138
#
# Disc length: 2748 seconds
#
# Revision: 0
# Processed by: cddbd v1.5.2PL0 Copyright (c) Steve Scherf et al.
# Submitted via: ExactAudioCopy v0.99pb3
#
DISCID=b60aba0d
DTITLE=Brian Blain - Who Paid You To Give Me The Blues
DYEAR=1999
DGENRE=Blues
TTITLE0=Who Paid You To Give Me The Blues
TTITLE1=Worry Worry
TTITLE2=I Can't Say That I Lost You
TTITLE3=Entrepeneurial Blues 
TTITLE4=The Big Fire
TTITLE5=Outlaw Of Megantic
TTITLE6=Girlfriend Blues
TTITLE7=Ten Worlds
TTITLE8=Y2K Blues
TTITLE9=Vulcan Heart
TTITLE10=Dump That Lump
TTITLE11=Computer Club Queen
TTITLE12=The TV Shuffle
EXTD=
EXTT0=
EXTT1=
EXTT2=
EXTT3=
EXTT4=
EXTT5=
EXTT6=
EXTT7=
EXTT8=
EXTT9=
EXTT10=
EXTT11=
EXTT12=
PLAYORDER=
